<svg width="206" height="42" viewBox="0 0 206 42" fill="none" xmlns="http://www.w3.org/2000/svg">
<path d="M11.6739 42C7.47405 42 4.47415 41.0351 2.6742 39.1052C0.891401 37.1754 0 34.1945 0 30.1625L0 26.1305H8.94829V29.8265C8.94829 32.48 9.66827 33.8068 11.1082 33.8068C11.7768 33.8068 12.2996 33.5483 12.6767 33.0314C13.071 32.5145 13.2682 31.8338 13.2682 30.9895C13.2682 29.8868 13.1139 28.9563 12.8053 28.1982C12.5139 27.44 12.0596 26.7249 11.4425 26.0529C10.8425 25.3637 9.84827 24.416 8.45974 23.2098L4.62843 19.8757C1.54281 17.2049 0 14.1895 0 10.8295C0 7.17662 0.925686 4.46277 2.77706 2.688C4.64557 0.896 7.20835 0 10.4654 0C10.5511 0 10.6282 0 10.6968 0C10.7654 0 11.2197 0 12.0596 0C12.8996 0 13.9796 0.198154 15.2995 0.594462C16.6195 0.973539 17.7937 1.61969 18.8223 2.53292C19.8508 3.42892 20.6222 4.68677 21.1365 6.30646C21.6508 7.90892 21.9079 9.87323 21.9079 12.1994H12.7282L12.6767 9.71815C12.6596 9.25292 12.4625 8.83938 12.0853 8.47754C11.7082 8.11569 11.2882 7.93477 10.8254 7.93477C10.2254 7.93477 9.71113 8.12431 9.28257 8.50338C8.87115 8.86523 8.66545 9.33908 8.66545 9.92492C8.66545 11.0966 9.51399 12.3717 11.2111 13.7502L16.6881 18.1957C17.5795 18.9194 18.3509 19.6603 19.0023 20.4185C19.6708 21.1594 20.1937 21.9003 20.5708 22.6412C20.9651 23.3649 21.2822 24.0283 21.5222 24.6314C21.7622 25.2172 21.925 25.8634 22.0107 26.5698C22.1136 27.2591 22.1736 27.7846 22.1907 28.1465C22.2079 28.4911 22.2165 28.9477 22.2165 29.5163C22.2165 30.9637 22.1222 32.2818 21.9336 33.4708C21.745 34.6425 21.4108 35.7797 20.9308 36.8825C20.4508 37.968 19.8165 38.8812 19.028 39.6222C18.2566 40.3458 17.2452 40.9231 15.9938 41.3538C14.7595 41.7846 13.3196 42 11.6739 42Z" fill="#FDE148"/>
<path d="M37.5941 0.361846H46.6967L41.6312 19.2037L47.751 41.5348H38.3655L33.4286 21.5815V41.5348H24.4288V0.361846H33.3771V16.8258L37.5941 0.361846Z" fill="#FDE148"/>
<path d="M48.6263 41.5348V0.361846H57.3688V41.5348H48.6263Z" fill="#FDE148"/>
<path d="M83.0062 0.361846V41.5348H74.1608L69.6352 20.9354V41.5348H60.7898V0.361846H70.0981L74.2636 20.0566V0.361846H83.0062Z" fill="#FDE148"/>
<path d="M86.4271 41.5348V0.361846H98.6925C101.898 0.361846 104.272 1.07692 105.815 2.50708C107.358 3.92 108.129 6.34092 108.129 9.76985C108.129 9.87323 108.129 10.0197 108.129 10.2092C108.129 10.8123 108.129 11.2603 108.129 11.5532C108.129 11.8462 108.095 12.3028 108.026 12.9231C107.975 13.5434 107.889 14.0345 107.769 14.3963C107.666 14.7409 107.504 15.1717 107.281 15.6886C107.058 16.2055 106.784 16.6277 106.458 16.9551C106.132 17.2825 105.721 17.6012 105.224 17.9114C104.727 18.2215 104.152 18.4542 103.501 18.6092C104.444 18.8332 105.249 19.2209 105.918 19.7723C106.587 20.3237 107.092 20.9095 107.435 21.5298C107.778 22.1329 108.044 22.8825 108.232 23.7785C108.438 24.6745 108.558 25.424 108.592 26.0271C108.626 26.6302 108.644 27.3538 108.644 28.1982C108.644 30.3692 108.489 32.2302 108.181 33.7809C107.889 35.3317 107.375 36.7188 106.638 37.9422C105.901 39.1483 104.872 40.0529 103.552 40.656C102.25 41.2418 100.63 41.5348 98.6925 41.5348H86.4271ZM95.2726 22.2794V34.2203C95.684 34.2548 95.984 34.272 96.1726 34.272C98.521 34.272 99.6953 33.2554 99.6953 31.2222C99.6953 31.2222 99.6953 29.5077 99.6953 26.0788C99.6953 24.7692 99.4725 23.8129 99.0267 23.2098C98.5982 22.5895 97.9039 22.2794 96.944 22.2794H95.2726ZM95.2726 15.8695H97.124C97.5697 15.8695 97.9296 15.7748 98.2039 15.5852C98.4953 15.3957 98.701 15.1286 98.821 14.784C98.941 14.4222 99.0182 14.1034 99.0525 13.8277C99.0868 13.5348 99.1039 13.1902 99.1039 12.7938V8.71015C99.1039 7.40062 98.4611 6.74585 97.1754 6.74585H95.2726V15.8695Z" fill="#FDE148"/>
<path d="M110.779 41.5348V0.361846H128.881V8.34831H119.984V16.3865H128.521V24.1145H119.984V33.4966H129.473V41.5348H110.779Z" fill="#FDE148"/>
<path d="M142.562 42C138.362 42 135.362 41.0351 133.562 39.1052C131.779 37.1754 130.888 34.1945 130.888 30.1625V26.1305H139.836V29.8265C139.836 32.48 140.556 33.8068 141.996 33.8068C142.665 33.8068 143.187 33.5483 143.565 33.0314C143.959 32.5145 144.156 31.8338 144.156 30.9895C144.156 29.8868 144.002 28.9563 143.693 28.1982C143.402 27.44 142.947 26.7249 142.33 26.0529C141.73 25.3637 140.736 24.416 139.348 23.2098L135.516 19.8757C132.431 17.2049 130.888 14.1895 130.888 10.8295C130.888 7.17662 131.814 4.46277 133.665 2.688C135.533 0.896 138.096 0 141.353 0C141.439 0 141.516 0 141.585 0C141.653 0 142.107 0 142.947 0C143.787 0 144.867 0.198154 146.187 0.594462C147.507 0.973539 148.682 1.61969 149.71 2.53292C150.739 3.42892 151.51 4.68677 152.024 6.30646C152.539 7.90892 152.796 9.87323 152.796 12.1994H143.616L143.565 9.71815C143.547 9.25292 143.35 8.83938 142.973 8.47754C142.596 8.11569 142.176 7.93477 141.713 7.93477C141.113 7.93477 140.599 8.12431 140.17 8.50338C139.759 8.86523 139.553 9.33908 139.553 9.92492C139.553 11.0966 140.402 12.3717 142.099 13.7502L147.576 18.1957C148.467 18.9194 149.239 19.6603 149.89 20.4185C150.559 21.1594 151.081 21.9003 151.459 22.6412C151.853 23.3649 152.17 24.0283 152.41 24.6314C152.65 25.2172 152.813 25.8634 152.899 26.5698C153.001 27.2591 153.061 27.7846 153.079 28.1465C153.096 28.4911 153.104 28.9477 153.104 29.5163C153.104 30.9637 153.01 32.2818 152.821 33.4708C152.633 34.6425 152.299 35.7797 151.819 36.8825C151.339 37.968 150.704 38.8812 149.916 39.6222C149.144 40.3458 148.133 40.9231 146.882 41.3538C145.647 41.7846 144.207 42 142.562 42Z" fill="#FDE148"/>
<path d="M153.594 0.361846H173.393V8.29662H168.019V41.5348H158.968V8.29662H153.594V0.361846Z" fill="#FDE148"/>
<path d="M175.143 41.5348V0.361846H183.885V41.5348H175.143Z" fill="#FDE148"/>
<path d="M187.306 41.5348V0.361846H205.409V8.34831H196.512V16.3865H205.049V24.1145H196.512V33.4966H206V41.5348H187.306Z" fill="#FDE148"/>
</svg>
