<svg width="48" height="48" viewBox="0 0 48 48" fill="none" xmlns="http://www.w3.org/2000/svg">
<path d="M24 44C12.9543 44 4 35.0456 4 24C4 12.9543 12.9543 4 24 4C35.0456 4 44 12.9543 44 24C44 35.0456 35.0456 44 24 44ZM24 40C32.8366 40 40 32.8366 40 24C40 15.1634 32.8366 8 24 8C15.1634 8 8 15.1634 8 24C8 32.8366 15.1634 40 24 40ZM24 16C25.1046 16 26 16.8954 26 18C26 19.1046 25.1046 20 24 20C22.8954 20 22 19.1046 22 18C22 16.8954 22.8954 16 24 16ZM24 24C27.3138 24 30 21.3138 30 18C30 14.6863 27.3138 12 24 12C20.6862 12 18 14.6863 18 18C18 21.3138 20.6862 24 24 24ZM24 30C21.7908 30 20 31.7908 20 34H16C16 29.5818 19.5817 26 24 26C28.4182 26 32 29.5818 32 34H28C28 31.7908 26.2092 30 24 30Z" fill="black"/>
</svg>
